<?xml version="1.0" encoding="utf-8"?>
<!-- Generator: Adobe Illustrator 16.0.0, SVG Export Plug-In . SVG Version: 6.00 Build 0)  -->
<!DOCTYPE svg PUBLIC "-//W3C//DTD SVG 1.1//EN" "http://www.w3.org/Graphics/SVG/1.1/DTD/svg11.dtd">
<svg version="1.1" id="Layer_1" xmlns="http://www.w3.org/2000/svg" xmlns:xlink="http://www.w3.org/1999/xlink" x="0px" y="0px"
	 width="612px" height="792px" viewBox="0 0 612 792" enable-background="new 0 0 612 792" xml:space="preserve">
<g>
	<defs>
		<polyline id="SVGID_1_" points="0,0 612,0 612,792 0,792 		"/>
	</defs>
	<clipPath id="SVGID_2_">
		<use xlink:href="#SVGID_1_"  overflow="visible"/>
	</clipPath>
	<path clip-path="url(#SVGID_2_)" fill-rule="evenodd" clip-rule="evenodd" d="M91.259,775.482"/>
	<path clip-path="url(#SVGID_2_)" fill="none" stroke="#000000" stroke-width="4" stroke-miterlimit="10" d="M91.259,775.482"/>
	<path clip-path="url(#SVGID_2_)" fill-rule="evenodd" clip-rule="evenodd" fill="#F1F2F2" d="M229.457,775.482"/>
	<path clip-path="url(#SVGID_2_)" fill="none" stroke="#000000" stroke-width="6" stroke-miterlimit="10" d="M229.457,775.482"/>
	<path clip-path="url(#SVGID_2_)" fill-rule="evenodd" clip-rule="evenodd" fill="#F05225" d="M372.492,775.482"/>
	<path clip-path="url(#SVGID_2_)" fill-rule="evenodd" clip-rule="evenodd" fill="#72CFEF" d="M577,718.741"/>
	<path clip-path="url(#SVGID_2_)" fill-rule="evenodd" clip-rule="evenodd" fill="#72CFEF" d="M520.259,775.482"/>
	<path clip-path="url(#SVGID_2_)" fill-rule="evenodd" clip-rule="evenodd" fill="#72CFEF" d="M577,718.741"/>
	<path clip-path="url(#SVGID_2_)" fill-rule="evenodd" clip-rule="evenodd" fill="#F1F2F2" d="M573.456,721.46
		c0.644-0.156,1.3-0.267,1.95-0.381c0.261-0.045,0.524-0.068,0.787-0.094c0.023-0.063,0.066-0.121,0.152-0.15
		c0.451-0.154,0.849-0.305,1.295-0.31c0.025-0.022,0.039-0.052,0.08-0.065c0.33-0.107,0.648-0.179,0.979-0.219
		c0.061-0.02,0.112-0.049,0.168-0.072v-0.172c-0.61-0.211-1.438-0.062-2.018-0.072c-0.893-0.013-1.785-0.025-2.676,0.02"/>
	<path clip-path="url(#SVGID_2_)" fill-rule="evenodd" clip-rule="evenodd" d="M11.15,334.258c1.593-0.035,3.194,0.015,4.779-0.125
		c2.614-0.229,5.226-0.521,7.824-0.898c2.369-0.344,4.726-0.802,7.076-1.28c1.074-0.217,2.111-0.621,3.175-0.9
		c0.678-0.177,1.394-0.219,2.059-0.427c2.381-0.742,4.744-1.542,7.123-2.29c0.431-0.135,0.931-0.052,1.356-0.194
		c2.104-0.704,4.198-1.438,6.288-2.182c2.915-1.038,5.828-2.083,8.731-3.151c1.359-0.499,2.718-1.009,4.034-1.608
		c1.01-0.459,1.248-1.022,0.936-2.121c-0.694-2.451-0.686-4.96-0.438-7.435c0.32-3.171,1.116-6.243,2.683-9.085
		c0.729-1.323,1.201-2.787,1.886-4.139c0.916-1.806,2.257-3.313,3.684-4.724c1.085-1.073,2.288-2.026,3.415-3.057
		c0.435-0.398,0.762-0.917,1.214-1.29c1.238-1.023,2.509-2.007,3.781-2.988c0.539-0.416,1.326-0.268,1.827,0.274
		c1.611,1.741,3.306,3.35,5.302,4.697c1.882,1.269,3.908,2.154,5.945,3.066c1.791,0.802,3.571,1.627,5.378,2.391
		c0.915,0.387,1.873,0.674,2.822,0.978c1.91,0.617,3.439,1.781,4.85,3.179c1.14,1.129,2.256,2.257,2.904,3.75
		c0.177,0.413,0.26,0.876,0.336,1.325c0.216,1.272,0.478,2.545,0.563,3.827c0.025,0.4-0.354,0.985-0.72,1.222
		c-1.353,0.875-2.753,1.69-4.184,2.433c-1.648,0.856-3.353,1.597-5.023,2.413c-1.742,0.851-3.409,1.918-5.229,2.527
		c-1.18,0.394-2.313,0.822-3.393,1.411c-1.134,0.619-2.229,1.311-3.37,1.918c-1.871,0.997-3.76,1.963-5.652,2.92
		c-1.086,0.548-2.214,1.017-3.278,1.603c-0.305,0.169-0.56,0.606-0.627,0.959c-0.034,0.18,0.361,0.542,0.632,0.658
		c0.587,0.255,1.212,0.431,1.834,0.592c0.733,0.189,1.472,0.378,2.219,0.475c0.667,0.086,1.35,0.07,2.024,0.057
		c1.453-0.027,2.908-0.051,4.358-0.136c0.764-0.044,1.521-0.221,2.284-0.324c0.764-0.101,1.536-0.169,2.298-0.279
		c0.588-0.085,1.165-0.233,1.751-0.322c1.225-0.185,2.466-0.282,3.675-0.541c1.938-0.413,3.851-0.944,5.783-1.395
		c1.441-0.334,2.893-0.624,4.344-0.923c1.56-0.321,3.12-0.63,4.68-0.944c2.981-0.601,5.962-1.211,8.947-1.798
		c0.73-0.144,1.486-0.168,2.212-0.327c1.087-0.24,1.976-0.888,2.361-1.904c0.288-0.761,0.204-1.66,0.311-2.495
		c0.107-0.829,0.223-1.657,0.371-2.48c0.13-0.712,0.305-1.415,0.466-2.121c0.504-2.214,2.093-3.85,3.13-5.78
		c0.778-1.451,1.896-2.752,3.017-3.978c0.874-0.954,1.939-1.755,3.001-2.509c2.127-1.508,4.335-2.903,6.457-4.417
		c1.112-0.793,2.108-1.746,3.17-2.61c0.347-0.282,0.736-0.517,1.114-0.763c1.199-0.78,2.4-1.557,3.601-2.329
		c0.994-0.639,1.982-1.288,2.992-1.901c1.256-0.764,2.492-1.582,3.822-2.192c0.451-0.205,1.237,0.017,1.726,0.295
		c0.513,0.291,0.926,0.755,1.239,1.388c0.37,0.753,1.175,1.318,1.859,1.887c1.113,0.927,2.253,1.83,3.439,2.665
		c0.825,0.583,1.716,1.096,2.63,1.531c1.514,0.721,3.252,1.113,4.545,2.101c0.959,0.735,2.195,1.366,2.702,2.715
		c0.305,0.812,0.964,1.504,1.514,2.21c1.217,1.566,1.248,2.835,0.313,4.633c-1.227,2.362-2.886,4.375-4.834,6.132
		c-1.035,0.935-2.323,1.585-3.475,2.395c-1.051,0.737-2.052,1.545-3.111,2.267c-0.997,0.678-2.018,1.327-3.071,1.909
		c-1.598,0.882-3.221,1.712-4.851,2.531c-0.939,0.473-1.914,0.878-2.868,1.319c-1.076,0.498-2.121,1.069-3.229,1.482
		c-0.98,0.367-2.048,0.504-3.037,0.855c-0.832,0.295-1.617,0.736-2.406,1.143c-0.486,0.249-0.402,0.548-0.035,0.882
		c0.811,0.739,1.85,0.532,2.784,0.643c1.69,0.199,3.397,0.275,5.101,0.327c2.982,0.091,5.965,0.131,8.949,0.181
		c1.113,0.019,2.224,0.015,3.338,0.012c2.523-0.011,5.045-0.04,7.568-0.036c1.785,0.004,3.569,0.057,5.353,0.073
		c0.619,0.006,1.239-0.046,1.858-0.053c2.579-0.031,5.155-0.049,7.73-0.083c2.309-0.031,4.618-0.06,6.924-0.122
		c2.814-0.075,5.627-0.215,8.442-0.264c1.43-0.024,2.863,0.142,4.295,0.136c1.352-0.006,2.703-0.194,4.053-0.18
		c1.242,0.012,2.484,0.262,3.726,0.271c1.864,0.014,3.771,0.134,5.577-0.217c1.484-0.29,2.907-0.078,4.353-0.156
		c1.672-0.091,3.346-0.148,5.018-0.198c0.458-0.013,0.92,0.092,1.378,0.073c1.183-0.053,2.37-0.238,3.548-0.196
		c1.207,0.042,2.401,0.349,3.61,0.436c1.5,0.108,3.007,0.107,4.51,0.157c0.488,0.016,0.979,0.013,1.463,0.071
		c1.061,0.127,2.013-0.218,2.988-0.566c0.442-0.158,0.997-0.212,1.445-0.094c1.211,0.316,2.386,0.48,3.651,0.251
		c0.678-0.123,1.463,0.031,2.133,0.256c0.907,0.307,1.612-0.164,2.406-0.339c0.605-0.133,1.33-0.256,1.865-0.045
		c1.157,0.456,2.28,0.578,3.491,0.372c0.407-0.07,0.858,0.058,1.281,0.13c0.976,0.165,1.896-0.042,2.725-0.515
		c0.713-0.405,1.132,0.245,1.695,0.312c1.538,0.181,3.026,0.853,4.629-0.198c0.674-0.442,1.871-0.083,2.832-0.099
		c0.456-0.009,0.916-0.053,1.374-0.067c0.423-0.012,0.851-0.043,1.27,0.003c0.892,0.099,81.283,0.198,82.158,0.386
		c0.539,0.117,1.051,0.384,1.553,0.635c0.041,0.021-0.045,0.572-0.186,0.639c-0.982,0.469-1.959,1.066-3.006,1.257
		c-1.514,0.279-82.583,0.25-84.13,0.35c-1.05,0.068-2.116,0.276-3.146,0.159c-1.136-0.128-2.152-0.037-3.185,0.446
		c-0.438,0.205-0.994,0.185-1.5,0.209c-0.771,0.037-1.545-0.004-2.316,0.038c-1.609,0.09-3.215,0.267-4.824,0.307
		c-2.854,0.069-5.708,0.037-8.562,0.1c-0.986,0.023-1.969,0.211-2.955,0.314c-1.149,0.122-2.298,0.236-3.449,0.351
		c-0.674,0.067-1.347,0.151-2.023,0.194c-0.725,0.046-1.454,0.035-2.179,0.084c-1.071,0.074-2.142,0.186-3.212,0.272
		c-2.466,0.199-4.938,0.352-7.397,0.602c-1.759,0.178-3.506,0.477-5.257,0.73c-1.602,0.231-3.196,0.516-4.803,0.69
		c-0.987,0.108-1.994,0.011-2.985,0.081c-1.049,0.074-2.089,0.277-3.138,0.346c-0.777,0.052-1.569-0.091-2.342-0.015
		c-1.533,0.151-3.056,0.405-4.588,0.592c-0.721,0.089-1.451,0.136-2.179,0.176c-0.781,0.043-1.565,0.042-2.346,0.083
		c-1.882,0.102-3.762,0.259-5.646,0.316c-2.727,0.082-5.46,0.04-8.186,0.154c-2.796,0.117-5.586,0.377-8.381,0.534
		c-1.301,0.072-2.607,0.027-3.908,0.071c-2.953,0.1-5.906,0.234-8.857,0.332c-2.509,0.082-5.021,0.228-7.529,0.176
		c-3.298-0.067-6.594-0.307-9.891-0.458c-1.178-0.054-2.388,0.093-3.53-0.129c-2.416-0.467-4.8-1.099-7.19-1.698
		c-0.995-0.249-1.984-0.547-2.95-0.896c-1.533-0.555-2.997-1.186-4.252-2.33c-1.412-1.29-3.099-1.018-4.808-0.469
		c-2.123,0.683-4.296,1.2-6.435,1.833c-0.952,0.282-1.858,0.719-2.813,1.006c-1.157,0.348-2.338,0.623-3.516,0.911
		c-1.907,0.467-3.8,1.023-5.734,1.349c-2.461,0.414-4.949,0.718-7.436,0.919c-2.534,0.204-5.083,0.311-7.624,0.302
		c-2.274-0.008-4.556-0.157-6.822-0.377c-2.562-0.248-5.113-0.922-7.661-0.886c-1.883,0.026-3.218-0.893-4.738-1.548
		c-1.481-0.64-2.939-1.344-4.35-2.12c-0.668-0.366-1.153-1.057-1.815-1.44c-0.638-0.371-1.255-0.758-1.87-1.146
		c-0.447-0.284-1.33-0.006-1.972,0.177c-0.796,0.228-1.535,0.641-2.316,0.933c-1.914,0.714-3.83,1.43-5.763,2.095
		c-1.094,0.377-2.227,0.647-3.338,0.977c-0.769,0.228-1.525,0.495-2.299,0.712c-0.803,0.223-1.614,0.416-2.427,0.604
		c-1.604,0.37-3.202,0.782-4.821,1.076c-2.491,0.452-4.989,0.874-7.498,1.201c-1.254,0.164-2.539,0.087-3.811,0.121
		c-1.591,0.041-3.183,0.083-4.774,0.126c-1.321,0.035-2.646,0.159-3.96,0.084c-1.185-0.067-2.367-0.304-3.533-0.55
		c-2.297-0.486-4.589-1.008-6.872-1.557c-1.255-0.302-2.506-0.642-3.729-1.054c-0.818-0.274-1.584-0.705-2.373-1.065
		C11.083,334.418,11.118,334.339,11.15,334.258 M91.241,307.69c0.297-1.316-0.617-2.049-1.389-2.757
		c-0.846-0.774-1.904-1.319-2.741-2.1c-1.159-1.084-2.469-1.119-3.858-0.802c-0.993,0.227-1.943,0.7-2.943,0.824
		c-1.377,0.172-2.483,0.688-3.281,1.809c-0.781,1.099-1.581,2.191-2.275,3.344c-0.918,1.524-1.797,3.077-2.579,4.674
		c-0.37,0.756-0.474,1.642-0.701,2.469c-0.108,0.389-0.273,0.771-0.324,1.166c-0.165,1.245,0.532,1.761,1.667,1.261
		c0.32-0.141,0.62-0.327,0.941-0.466c1.136-0.49,2.281-0.963,3.418-1.452c0.709-0.305,1.397-0.664,2.12-0.928
		c0.307-0.112,0.706,0.033,1.017-0.073c1.289-0.44,2.585-0.874,3.83-1.418c1.568-0.685,3.059-1.552,4.641-2.199
		C90.348,310.403,90.892,309.144,91.241,307.69 M165.789,307.121c-0.42-1.418-0.372-2.793-1.25-3.948
		c-0.519-0.682-1.179-0.859-1.901-0.902c-1.083-0.064-2.014,0.467-2.864,1.057c-1.728,1.201-3.406,2.472-5.109,3.71
		c-0.763,0.556-1.468,1.238-2.31,1.628c-1.998,0.926-3.924,1.929-5.693,3.267c-1.056,0.801-2.306,1.343-3.413,2.085
		c-0.638,0.429-1.159,1.031-1.742,1.543c-0.804,0.709-1.589,1.445-2.435,2.098c-0.546,0.42-0.486,0.952-0.233,1.354
		c0.14,0.221,0.73,0.278,1.09,0.222c1.238-0.196,2.483-0.406,3.69-0.739c1.244-0.341,2.462-0.79,3.663-1.265
		c0.872-0.345,1.677-0.863,2.549-1.209c1.339-0.532,2.707-0.994,4.069-1.463c1.396-0.479,2.536-1.329,3.562-2.363
		c0.16-0.16,0.41-0.258,0.637-0.313c0.788-0.191,1.608-0.276,2.371-0.54c0.767-0.266,1.547-0.604,2.196-1.08
		c0.852-0.623,1.597-1.397,2.358-2.14C165.331,307.824,165.552,307.436,165.789,307.121"/>
</g>
<g>
	<path d="M196.211,319.77c0.448,0.434,1.092,0.651,1.932,0.651c0.602,0,1.12-0.15,1.554-0.451c0.434-0.301,0.7-0.62,0.798-0.956
		h2.625c-0.42,1.302-1.064,2.233-1.932,2.793c-0.869,0.56-1.918,0.84-3.15,0.84c-0.854,0-1.624-0.136-2.31-0.41
		c-0.686-0.273-1.267-0.661-1.743-1.165c-0.476-0.504-0.844-1.106-1.103-1.806c-0.259-0.7-0.389-1.47-0.389-2.31
		c0-0.812,0.133-1.568,0.399-2.268c0.266-0.7,0.644-1.305,1.134-1.816c0.49-0.511,1.074-0.914,1.753-1.208
		c0.679-0.294,1.431-0.441,2.257-0.441c0.924,0,1.729,0.178,2.415,0.535c0.686,0.357,1.25,0.837,1.69,1.439
		c0.441,0.602,0.759,1.288,0.956,2.058c0.196,0.77,0.266,1.575,0.21,2.415h-7.833C195.518,318.636,195.763,319.336,196.211,319.77z
		 M199.582,314.058c-0.357-0.392-0.899-0.588-1.627-0.588c-0.476,0-0.872,0.081-1.187,0.241c-0.315,0.161-0.567,0.361-0.756,0.599
		c-0.189,0.238-0.322,0.49-0.399,0.756c-0.077,0.266-0.123,0.504-0.137,0.714h4.851C200.187,315.023,199.939,314.45,199.582,314.058
		z"/>
	<path d="M208.328,307.379v8.043l3.759-3.906h3.528l-4.095,3.99l4.557,6.867h-3.612l-2.982-4.851l-1.155,1.113v3.738h-2.982v-14.994
		H208.328z"/>
	<path d="M220.193,307.379v14.994h-2.982v-14.994H220.193z"/>
	<path d="M225.737,319.77c0.448,0.434,1.092,0.651,1.932,0.651c0.602,0,1.12-0.15,1.554-0.451c0.434-0.301,0.7-0.62,0.798-0.956
		h2.625c-0.42,1.302-1.064,2.233-1.932,2.793c-0.869,0.56-1.918,0.84-3.15,0.84c-0.854,0-1.624-0.136-2.31-0.41
		c-0.686-0.273-1.267-0.661-1.743-1.165c-0.476-0.504-0.844-1.106-1.103-1.806c-0.259-0.7-0.389-1.47-0.389-2.31
		c0-0.812,0.133-1.568,0.399-2.268c0.266-0.7,0.644-1.305,1.134-1.816c0.49-0.511,1.074-0.914,1.753-1.208
		c0.679-0.294,1.431-0.441,2.257-0.441c0.924,0,1.729,0.178,2.415,0.535c0.686,0.357,1.25,0.837,1.69,1.439
		c0.441,0.602,0.759,1.288,0.956,2.058c0.196,0.77,0.266,1.575,0.21,2.415h-7.833C225.043,318.636,225.289,319.336,225.737,319.77z
		 M229.107,314.058c-0.357-0.392-0.899-0.588-1.627-0.588c-0.476,0-0.872,0.081-1.187,0.241c-0.315,0.161-0.567,0.361-0.756,0.599
		c-0.189,0.238-0.322,0.49-0.399,0.756c-0.077,0.266-0.123,0.504-0.137,0.714h4.851C229.712,315.023,229.464,314.45,229.107,314.058
		z"/>
	<path d="M237.854,307.379v8.043l3.759-3.906h3.528l-4.095,3.99l4.557,6.867h-3.612l-2.982-4.851l-1.155,1.113v3.738h-2.982v-14.994
		H237.854z"/>
	<path d="M252.617,311.517v1.995h-2.184v5.376c0,0.504,0.084,0.84,0.252,1.008s0.504,0.252,1.008,0.252
		c0.168,0,0.329-0.007,0.483-0.021c0.154-0.014,0.301-0.035,0.441-0.063v2.31c-0.252,0.042-0.532,0.07-0.84,0.084
		c-0.308,0.014-0.609,0.021-0.903,0.021c-0.462,0-0.9-0.031-1.312-0.094c-0.413-0.063-0.777-0.186-1.092-0.368
		c-0.315-0.182-0.564-0.441-0.746-0.777c-0.182-0.336-0.273-0.777-0.273-1.323v-6.405h-1.806v-1.995h1.806v-3.255h2.982v3.255
		H252.617z"/>
	<path d="M254.128,309.836v-2.457h2.982v2.457H254.128z M257.11,311.517v10.857h-2.982v-10.857H257.11z"/>
	<path d="M264.649,313.47c-0.476,0-0.875,0.108-1.197,0.325c-0.322,0.217-0.585,0.497-0.788,0.84
		c-0.203,0.343-0.346,0.721-0.431,1.134c-0.084,0.413-0.126,0.823-0.126,1.229c0,0.392,0.042,0.791,0.126,1.197
		c0.084,0.406,0.221,0.774,0.41,1.103c0.189,0.329,0.444,0.599,0.767,0.809c0.322,0.21,0.714,0.315,1.176,0.315
		c0.714,0,1.264-0.199,1.649-0.598c0.385-0.399,0.626-0.935,0.724-1.607h2.877c-0.196,1.442-0.756,2.541-1.68,3.297
		c-0.924,0.756-2.107,1.134-3.549,1.134c-0.812,0-1.558-0.136-2.236-0.41c-0.679-0.273-1.257-0.654-1.732-1.144
		c-0.476-0.49-0.847-1.075-1.113-1.754c-0.266-0.679-0.399-1.424-0.399-2.236c0-0.84,0.123-1.62,0.368-2.341
		c0.245-0.721,0.605-1.344,1.082-1.869c0.476-0.525,1.057-0.935,1.743-1.229c0.686-0.294,1.47-0.441,2.352-0.441
		c0.644,0,1.264,0.084,1.859,0.252c0.595,0.168,1.126,0.423,1.596,0.767s0.851,0.77,1.145,1.281
		c0.294,0.511,0.462,1.117,0.504,1.816h-2.919C266.658,314.093,265.923,313.47,264.649,313.47z"/>
	<path d="M280.546,319.77c0.448,0.434,1.092,0.651,1.932,0.651c0.602,0,1.12-0.15,1.554-0.451c0.434-0.301,0.7-0.62,0.798-0.956
		h2.625c-0.42,1.302-1.064,2.233-1.932,2.793c-0.869,0.56-1.918,0.84-3.15,0.84c-0.854,0-1.624-0.136-2.31-0.41
		c-0.686-0.273-1.267-0.661-1.743-1.165c-0.476-0.504-0.844-1.106-1.103-1.806c-0.259-0.7-0.389-1.47-0.389-2.31
		c0-0.812,0.133-1.568,0.399-2.268c0.266-0.7,0.644-1.305,1.134-1.816c0.49-0.511,1.074-0.914,1.753-1.208
		c0.679-0.294,1.431-0.441,2.257-0.441c0.924,0,1.729,0.178,2.415,0.535c0.686,0.357,1.25,0.837,1.69,1.439
		c0.441,0.602,0.759,1.288,0.956,2.058c0.196,0.77,0.266,1.575,0.21,2.415h-7.833C279.853,318.636,280.098,319.336,280.546,319.77z
		 M283.916,314.058c-0.357-0.392-0.899-0.588-1.627-0.588c-0.476,0-0.872,0.081-1.187,0.241c-0.315,0.161-0.567,0.361-0.756,0.599
		c-0.189,0.238-0.322,0.49-0.399,0.756c-0.077,0.266-0.123,0.504-0.137,0.714h4.851C284.521,315.023,284.273,314.45,283.916,314.058
		z"/>
	<path d="M297.114,320.987c-0.35,0.588-0.808,1.012-1.375,1.271c-0.567,0.259-1.208,0.389-1.921,0.389
		c-0.812,0-1.526-0.157-2.142-0.473c-0.616-0.315-1.124-0.742-1.522-1.281c-0.399-0.539-0.7-1.158-0.903-1.858
		c-0.203-0.7-0.305-1.428-0.305-2.184c0-0.728,0.102-1.431,0.305-2.11c0.203-0.679,0.504-1.278,0.903-1.796
		c0.399-0.518,0.899-0.934,1.501-1.25c0.602-0.315,1.302-0.472,2.1-0.472c0.644,0,1.256,0.136,1.837,0.409
		c0.581,0.273,1.04,0.676,1.375,1.208h0.042v-5.46h2.982v14.994h-2.835v-1.386H297.114z M296.988,315.622
		c-0.084-0.413-0.228-0.777-0.43-1.092c-0.203-0.315-0.466-0.57-0.788-0.767c-0.322-0.196-0.728-0.294-1.218-0.294
		s-0.903,0.098-1.239,0.294c-0.336,0.196-0.606,0.455-0.809,0.777c-0.203,0.322-0.35,0.69-0.441,1.103
		c-0.091,0.413-0.137,0.844-0.137,1.292c0,0.42,0.049,0.84,0.147,1.26c0.098,0.42,0.255,0.795,0.473,1.124
		c0.217,0.329,0.49,0.595,0.819,0.798s0.725,0.304,1.187,0.304c0.49,0,0.899-0.098,1.229-0.294c0.329-0.196,0.591-0.458,0.788-0.788
		c0.196-0.329,0.336-0.703,0.42-1.124c0.084-0.42,0.126-0.854,0.126-1.302C297.114,316.466,297.072,316.035,296.988,315.622z"/>
	<path d="M302.322,309.836v-2.457h2.982v2.457H302.322z M305.305,311.517v10.857h-2.982v-10.857H305.305z"/>
	<path d="M313.62,311.517v1.995h-2.184v5.376c0,0.504,0.084,0.84,0.252,1.008s0.504,0.252,1.008,0.252
		c0.168,0,0.329-0.007,0.483-0.021c0.153-0.014,0.301-0.035,0.44-0.063v2.31c-0.252,0.042-0.532,0.07-0.84,0.084
		c-0.308,0.014-0.608,0.021-0.902,0.021c-0.463,0-0.9-0.031-1.312-0.094c-0.414-0.063-0.777-0.186-1.093-0.368
		c-0.314-0.182-0.563-0.441-0.745-0.777c-0.183-0.336-0.273-0.777-0.273-1.323v-6.405h-1.806v-1.995h1.806v-3.255h2.982v3.255
		H313.62z"/>
	<path d="M315.132,309.836v-2.457h2.982v2.457H315.132z M318.114,311.517v10.857h-2.982v-10.857H318.114z"/>
	<path d="M320.529,314.593c0.266-0.707,0.644-1.309,1.134-1.806s1.078-0.882,1.764-1.155c0.687-0.273,1.456-0.409,2.311-0.409
		c0.854,0,1.627,0.136,2.32,0.409c0.693,0.273,1.284,0.658,1.774,1.155s0.868,1.099,1.134,1.806s0.399,1.494,0.399,2.362
		s-0.134,1.652-0.399,2.352s-0.644,1.299-1.134,1.795c-0.49,0.497-1.081,0.879-1.774,1.145s-1.467,0.399-2.32,0.399
		c-0.854,0-1.624-0.133-2.311-0.399c-0.686-0.266-1.273-0.647-1.764-1.145c-0.49-0.497-0.868-1.095-1.134-1.795
		c-0.267-0.7-0.399-1.484-0.399-2.352S320.263,315.3,320.529,314.593z M323.238,318.226c0.084,0.413,0.228,0.784,0.431,1.113
		c0.202,0.329,0.472,0.592,0.808,0.788c0.337,0.196,0.757,0.294,1.261,0.294s0.927-0.098,1.271-0.294
		c0.343-0.196,0.615-0.458,0.818-0.788c0.203-0.329,0.347-0.7,0.431-1.113c0.084-0.413,0.126-0.836,0.126-1.271
		c0-0.434-0.042-0.861-0.126-1.281c-0.084-0.42-0.228-0.791-0.431-1.113c-0.203-0.322-0.476-0.584-0.818-0.788
		c-0.344-0.203-0.767-0.304-1.271-0.304s-0.924,0.102-1.261,0.304c-0.336,0.203-0.605,0.466-0.808,0.788
		c-0.203,0.322-0.347,0.693-0.431,1.113c-0.084,0.42-0.126,0.848-0.126,1.281C323.112,317.39,323.154,317.813,323.238,318.226z"/>
	<path d="M336.132,311.517v1.512h0.063c0.378-0.63,0.867-1.088,1.47-1.375c0.602-0.287,1.218-0.43,1.848-0.43
		c0.799,0,1.453,0.108,1.964,0.325c0.511,0.217,0.913,0.518,1.208,0.903c0.294,0.385,0.5,0.854,0.619,1.407
		c0.119,0.553,0.179,1.166,0.179,1.837v6.678H340.5v-6.132c0-0.896-0.14-1.564-0.42-2.006c-0.28-0.441-0.777-0.661-1.491-0.661
		c-0.812,0-1.399,0.241-1.764,0.724c-0.364,0.483-0.546,1.278-0.546,2.384v5.691h-2.982v-10.857H336.132z"/>
	<path d="M348.259,319.675c0.133,0.231,0.305,0.42,0.515,0.567s0.451,0.255,0.725,0.325c0.272,0.07,0.557,0.105,0.851,0.105
		c0.21,0,0.43-0.024,0.661-0.073c0.231-0.049,0.441-0.126,0.63-0.231c0.189-0.105,0.347-0.245,0.473-0.42
		c0.126-0.175,0.188-0.396,0.188-0.662c0-0.448-0.297-0.784-0.892-1.008c-0.596-0.224-1.425-0.448-2.489-0.672
		c-0.434-0.098-0.857-0.213-1.271-0.346c-0.413-0.133-0.78-0.308-1.103-0.525c-0.322-0.217-0.581-0.49-0.776-0.819
		c-0.196-0.329-0.294-0.731-0.294-1.208c0-0.7,0.136-1.274,0.409-1.722c0.273-0.448,0.633-0.801,1.081-1.06
		c0.448-0.259,0.952-0.441,1.513-0.546c0.56-0.105,1.134-0.157,1.722-0.157s1.158,0.056,1.712,0.168
		c0.553,0.112,1.046,0.301,1.48,0.567c0.434,0.266,0.794,0.62,1.081,1.061s0.459,0.998,0.515,1.669h-2.835
		c-0.042-0.574-0.26-0.962-0.651-1.166c-0.392-0.203-0.854-0.304-1.386-0.304c-0.168,0-0.35,0.01-0.546,0.031
		s-0.375,0.066-0.535,0.137c-0.161,0.07-0.298,0.171-0.41,0.304c-0.112,0.133-0.168,0.312-0.168,0.536
		c0,0.266,0.098,0.483,0.294,0.651s0.452,0.305,0.767,0.41c0.315,0.105,0.676,0.199,1.082,0.283
		c0.405,0.084,0.818,0.175,1.238,0.273c0.435,0.098,0.857,0.217,1.271,0.357s0.78,0.325,1.103,0.556s0.581,0.518,0.777,0.861
		s0.294,0.766,0.294,1.271c0,0.714-0.144,1.312-0.431,1.795s-0.661,0.872-1.123,1.166s-0.991,0.5-1.586,0.62
		c-0.595,0.119-1.2,0.178-1.816,0.178c-0.63,0-1.246-0.063-1.848-0.189c-0.603-0.126-1.138-0.336-1.606-0.63
		c-0.47-0.294-0.854-0.683-1.155-1.166s-0.466-1.088-0.493-1.816h2.835C348.06,319.168,348.126,319.444,348.259,319.675z"/>
</g>
</svg>
