<?xml version="1.0" encoding="utf-8"?>
<!-- Generator: Adobe Illustrator 16.0.0, SVG Export Plug-In . SVG Version: 6.00 Build 0)  -->
<!DOCTYPE svg PUBLIC "-//W3C//DTD SVG 1.1//EN" "http://www.w3.org/Graphics/SVG/1.1/DTD/svg11.dtd">
<svg version="1.1" id="Layer_1" xmlns="http://www.w3.org/2000/svg" xmlns:xlink="http://www.w3.org/1999/xlink" x="0px" y="0px"
	 width="612px" height="792px" viewBox="0 0 612 792" enable-background="new 0 0 612 792" xml:space="preserve">
<g>
	<defs>
		<polyline id="SVGID_1_" points="0,0 612,0 612,792 0,792 		"/>
	</defs>
	<clipPath id="SVGID_2_">
		<use xlink:href="#SVGID_1_"  overflow="visible"/>
	</clipPath>
	<path clip-path="url(#SVGID_2_)" fill-rule="evenodd" clip-rule="evenodd" d="M91.259,775.482"/>
	<path clip-path="url(#SVGID_2_)" fill="none" stroke="#000000" stroke-width="4" stroke-miterlimit="10" d="M91.259,775.482"/>
	<path clip-path="url(#SVGID_2_)" fill-rule="evenodd" clip-rule="evenodd" fill="#F1F2F2" d="M229.457,775.482"/>
	<path clip-path="url(#SVGID_2_)" fill="none" stroke="#000000" stroke-width="6" stroke-miterlimit="10" d="M229.457,775.482"/>
	<path clip-path="url(#SVGID_2_)" fill-rule="evenodd" clip-rule="evenodd" fill="#F05225" d="M372.492,775.482"/>
	<path clip-path="url(#SVGID_2_)" fill-rule="evenodd" clip-rule="evenodd" fill="#72CFEF" d="M577,718.741"/>
	<path clip-path="url(#SVGID_2_)" fill-rule="evenodd" clip-rule="evenodd" fill="#72CFEF" d="M520.259,775.482"/>
	<path clip-path="url(#SVGID_2_)" fill-rule="evenodd" clip-rule="evenodd" fill="#72CFEF" d="M577,718.741"/>
	<path clip-path="url(#SVGID_2_)" fill-rule="evenodd" clip-rule="evenodd" fill="#F1F2F2" d="M573.456,721.46
		c0.644-0.156,1.3-0.267,1.95-0.381c0.261-0.045,0.524-0.068,0.787-0.094c0.023-0.063,0.066-0.121,0.152-0.15
		c0.451-0.154,0.849-0.305,1.295-0.31c0.025-0.022,0.039-0.052,0.08-0.065c0.33-0.107,0.648-0.179,0.979-0.219
		c0.061-0.02,0.112-0.049,0.168-0.072v-0.172c-0.61-0.211-1.438-0.062-2.018-0.072c-0.893-0.013-1.785-0.025-2.676,0.02"/>
	<path clip-path="url(#SVGID_2_)" fill-rule="evenodd" clip-rule="evenodd" d="M11.15,334.258c1.593-0.035,3.194,0.015,4.779-0.125
		c2.614-0.229,5.226-0.521,7.824-0.898c2.369-0.344,4.726-0.802,7.076-1.28c1.074-0.217,2.111-0.621,3.175-0.9
		c0.678-0.177,1.394-0.219,2.059-0.427c2.381-0.742,4.744-1.542,7.123-2.29c0.431-0.135,0.931-0.052,1.356-0.194
		c2.104-0.704,4.198-1.438,6.288-2.182c2.915-1.038,5.828-2.083,8.731-3.151c1.359-0.499,2.718-1.009,4.034-1.608
		c1.01-0.459,1.248-1.022,0.936-2.121c-0.694-2.451-0.686-4.96-0.438-7.435c0.32-3.171,1.116-6.243,2.683-9.085
		c0.729-1.323,1.201-2.787,1.886-4.139c0.916-1.806,2.257-3.313,3.684-4.724c1.085-1.073,2.288-2.026,3.415-3.057
		c0.435-0.398,0.762-0.917,1.214-1.29c1.238-1.023,2.509-2.007,3.781-2.988c0.539-0.416,1.326-0.268,1.827,0.274
		c1.611,1.741,3.306,3.35,5.302,4.697c1.882,1.269,3.908,2.154,5.945,3.066c1.791,0.802,3.571,1.627,5.378,2.391
		c0.915,0.387,1.873,0.674,2.822,0.978c1.91,0.617,3.439,1.781,4.85,3.179c1.14,1.129,2.256,2.257,2.904,3.75
		c0.177,0.413,0.26,0.876,0.336,1.325c0.216,1.272,0.478,2.545,0.563,3.827c0.025,0.4-0.354,0.985-0.72,1.222
		c-1.353,0.875-2.753,1.69-4.184,2.433c-1.648,0.856-3.353,1.597-5.023,2.413c-1.742,0.851-3.409,1.918-5.229,2.527
		c-1.18,0.394-2.313,0.822-3.393,1.411c-1.134,0.619-2.229,1.311-3.37,1.918c-1.871,0.997-3.76,1.963-5.652,2.92
		c-1.086,0.548-2.214,1.017-3.278,1.603c-0.305,0.169-0.56,0.606-0.627,0.959c-0.034,0.18,0.361,0.542,0.632,0.658
		c0.587,0.255,1.212,0.431,1.834,0.592c0.733,0.189,1.472,0.378,2.219,0.475c0.667,0.086,1.35,0.07,2.024,0.057
		c1.453-0.027,2.908-0.051,4.358-0.136c0.764-0.044,1.521-0.221,2.284-0.324c0.764-0.101,1.536-0.169,2.298-0.279
		c0.588-0.085,1.165-0.233,1.751-0.322c1.225-0.185,2.466-0.282,3.675-0.541c1.938-0.413,3.851-0.944,5.783-1.395
		c1.441-0.334,2.893-0.624,4.344-0.923c1.56-0.321,3.12-0.63,4.68-0.944c2.981-0.601,5.962-1.211,8.947-1.798
		c0.73-0.144,1.486-0.168,2.212-0.327c1.087-0.24,1.976-0.888,2.361-1.904c0.288-0.761,0.204-1.66,0.311-2.495
		c0.107-0.829,0.223-1.657,0.371-2.48c0.13-0.712,0.305-1.415,0.466-2.121c0.504-2.214,2.093-3.85,3.13-5.78
		c0.778-1.451,1.896-2.752,3.017-3.978c0.874-0.954,1.939-1.755,3.001-2.509c2.127-1.508,4.335-2.903,6.457-4.417
		c1.112-0.793,2.108-1.746,3.17-2.61c0.347-0.282,0.736-0.517,1.114-0.763c1.199-0.78,2.4-1.557,3.601-2.329
		c0.994-0.639,1.982-1.288,2.992-1.901c1.256-0.764,2.492-1.582,3.822-2.192c0.451-0.205,1.237,0.017,1.726,0.295
		c0.513,0.291,0.926,0.755,1.239,1.388c0.37,0.753,1.175,1.318,1.859,1.887c1.113,0.927,2.253,1.83,3.439,2.665
		c0.825,0.583,1.716,1.096,2.63,1.531c1.514,0.721,3.252,1.113,4.545,2.101c0.959,0.735,2.195,1.366,2.702,2.715
		c0.305,0.812,0.964,1.504,1.514,2.21c1.217,1.566,1.248,2.835,0.313,4.633c-1.227,2.362-2.886,4.375-4.834,6.132
		c-1.035,0.935-2.323,1.585-3.475,2.395c-1.051,0.737-2.052,1.545-3.111,2.267c-0.997,0.678-2.018,1.327-3.071,1.909
		c-1.598,0.882-3.221,1.712-4.851,2.531c-0.939,0.473-1.914,0.878-2.868,1.319c-1.076,0.498-2.121,1.069-3.229,1.482
		c-0.98,0.367-2.048,0.504-3.037,0.855c-0.832,0.295-1.617,0.736-2.406,1.143c-0.486,0.249-0.402,0.548-0.035,0.882
		c0.811,0.739,1.85,0.532,2.784,0.643c1.69,0.199,3.397,0.275,5.101,0.327c2.982,0.091,5.965,0.131,8.949,0.181
		c1.113,0.019,2.224,0.015,3.338,0.012c2.523-0.011,5.045-0.04,7.568-0.036c1.785,0.004,3.569,0.057,5.353,0.073
		c0.619,0.006,1.239-0.046,1.858-0.053c2.579-0.031,5.155-0.049,7.73-0.083c2.309-0.031,4.618-0.06,6.924-0.122
		c2.814-0.075,5.627-0.215,8.442-0.264c1.43-0.024,2.863,0.142,4.295,0.136c1.352-0.006,2.703-0.194,4.053-0.18
		c1.242,0.012,2.484,0.262,3.726,0.271c1.864,0.014,3.771,0.134,5.577-0.217c1.484-0.29,2.907-0.078,4.353-0.156
		c1.672-0.091,3.346-0.148,5.018-0.198c0.458-0.013,0.92,0.092,1.378,0.073c1.183-0.053,2.37-0.238,3.548-0.196
		c1.207,0.042,2.401,0.349,3.61,0.436c1.5,0.108,3.007,0.107,4.51,0.157c0.488,0.016,0.979,0.013,1.463,0.071
		c1.061,0.127,2.013-0.218,2.988-0.566c0.442-0.158,0.997-0.212,1.445-0.094c1.211,0.316,2.386,0.48,3.651,0.251
		c0.678-0.123,1.463,0.031,2.133,0.256c0.907,0.307,1.612-0.164,2.406-0.339c0.605-0.133,1.33-0.256,1.865-0.045
		c1.157,0.456,2.28,0.578,3.491,0.372c0.407-0.07,0.858,0.058,1.281,0.13c0.976,0.165,1.896-0.042,2.725-0.515
		c0.713-0.405,1.132,0.245,1.695,0.312c1.538,0.181,3.026,0.853,4.629-0.198c0.674-0.442,1.871-0.083,2.832-0.099
		c0.456-0.009,0.916-0.053,1.374-0.067c0.423-0.012,0.851-0.043,1.27,0.003c0.892,0.099,81.283,0.198,82.158,0.386
		c0.539,0.117,1.051,0.384,1.553,0.635c0.041,0.021-0.045,0.572-0.186,0.639c-0.982,0.469-1.959,1.066-3.006,1.257
		c-1.514,0.279-82.583,0.25-84.13,0.35c-1.05,0.068-2.116,0.276-3.146,0.159c-1.136-0.128-2.152-0.037-3.185,0.446
		c-0.438,0.205-0.994,0.185-1.5,0.209c-0.771,0.037-1.545-0.004-2.316,0.038c-1.609,0.09-3.215,0.267-4.824,0.307
		c-2.854,0.069-5.708,0.037-8.562,0.1c-0.986,0.023-1.969,0.211-2.955,0.314c-1.149,0.122-2.298,0.236-3.449,0.351
		c-0.674,0.067-1.347,0.151-2.023,0.194c-0.725,0.046-1.454,0.035-2.179,0.084c-1.071,0.074-2.142,0.186-3.212,0.272
		c-2.466,0.199-4.938,0.352-7.397,0.602c-1.759,0.178-3.506,0.477-5.257,0.73c-1.602,0.231-3.196,0.516-4.803,0.69
		c-0.987,0.108-1.994,0.011-2.985,0.081c-1.049,0.074-2.089,0.277-3.138,0.346c-0.777,0.052-1.569-0.091-2.342-0.015
		c-1.533,0.151-3.056,0.405-4.588,0.592c-0.721,0.089-1.451,0.136-2.179,0.176c-0.781,0.043-1.565,0.042-2.346,0.083
		c-1.882,0.102-3.762,0.259-5.646,0.316c-2.727,0.082-5.46,0.04-8.186,0.154c-2.796,0.117-5.586,0.377-8.381,0.534
		c-1.301,0.072-2.607,0.027-3.908,0.071c-2.953,0.1-5.906,0.234-8.857,0.332c-2.509,0.082-5.021,0.228-7.529,0.176
		c-3.298-0.067-6.594-0.307-9.891-0.458c-1.178-0.054-2.388,0.093-3.53-0.129c-2.416-0.467-4.8-1.099-7.19-1.698
		c-0.995-0.249-1.984-0.547-2.95-0.896c-1.533-0.555-2.997-1.186-4.252-2.33c-1.412-1.29-3.099-1.018-4.808-0.469
		c-2.123,0.683-4.296,1.2-6.435,1.833c-0.952,0.282-1.858,0.719-2.813,1.006c-1.157,0.348-2.338,0.623-3.516,0.911
		c-1.907,0.467-3.8,1.023-5.734,1.349c-2.461,0.414-4.949,0.718-7.436,0.919c-2.534,0.204-5.083,0.311-7.624,0.302
		c-2.274-0.008-4.556-0.157-6.822-0.377c-2.562-0.248-5.113-0.922-7.661-0.886c-1.883,0.026-3.218-0.893-4.738-1.548
		c-1.481-0.64-2.939-1.344-4.35-2.12c-0.668-0.366-1.153-1.057-1.815-1.44c-0.638-0.371-1.255-0.758-1.87-1.146
		c-0.447-0.284-1.33-0.006-1.972,0.177c-0.796,0.228-1.535,0.641-2.316,0.933c-1.914,0.714-3.83,1.43-5.763,2.095
		c-1.094,0.377-2.227,0.647-3.338,0.977c-0.769,0.228-1.525,0.495-2.299,0.712c-0.803,0.223-1.614,0.416-2.427,0.604
		c-1.604,0.37-3.202,0.782-4.821,1.076c-2.491,0.452-4.989,0.874-7.498,1.201c-1.254,0.164-2.539,0.087-3.811,0.121
		c-1.591,0.041-3.183,0.083-4.774,0.126c-1.321,0.035-2.646,0.159-3.96,0.084c-1.185-0.067-2.367-0.304-3.533-0.55
		c-2.297-0.486-4.589-1.008-6.872-1.557c-1.255-0.302-2.506-0.642-3.729-1.054c-0.818-0.274-1.584-0.705-2.373-1.065
		C11.083,334.418,11.118,334.339,11.15,334.258 M91.241,307.69c0.297-1.316-0.617-2.049-1.389-2.757
		c-0.846-0.774-1.904-1.319-2.741-2.1c-1.159-1.084-2.469-1.119-3.858-0.802c-0.993,0.227-1.943,0.7-2.943,0.824
		c-1.377,0.172-2.483,0.688-3.281,1.809c-0.781,1.099-1.581,2.191-2.275,3.344c-0.918,1.524-1.797,3.077-2.579,4.674
		c-0.37,0.756-0.474,1.642-0.701,2.469c-0.108,0.389-0.273,0.771-0.324,1.166c-0.165,1.245,0.532,1.761,1.667,1.261
		c0.32-0.141,0.62-0.327,0.941-0.466c1.136-0.49,2.281-0.963,3.418-1.452c0.709-0.305,1.397-0.664,2.12-0.928
		c0.307-0.112,0.706,0.033,1.017-0.073c1.289-0.44,2.585-0.874,3.83-1.418c1.568-0.685,3.059-1.552,4.641-2.199
		C90.348,310.403,90.892,309.144,91.241,307.69 M165.789,307.121c-0.42-1.418-0.372-2.793-1.25-3.948
		c-0.519-0.682-1.179-0.859-1.901-0.902c-1.083-0.064-2.014,0.467-2.864,1.057c-1.728,1.201-3.406,2.472-5.109,3.71
		c-0.763,0.556-1.468,1.238-2.31,1.628c-1.998,0.926-3.924,1.929-5.693,3.267c-1.056,0.801-2.306,1.343-3.413,2.085
		c-0.638,0.429-1.159,1.031-1.742,1.543c-0.804,0.709-1.589,1.445-2.435,2.098c-0.546,0.42-0.486,0.952-0.233,1.354
		c0.14,0.221,0.73,0.278,1.09,0.222c1.238-0.196,2.483-0.406,3.69-0.739c1.244-0.341,2.462-0.79,3.663-1.265
		c0.872-0.345,1.677-0.863,2.549-1.209c1.339-0.532,2.707-0.994,4.069-1.463c1.396-0.479,2.536-1.329,3.562-2.363
		c0.16-0.16,0.41-0.258,0.637-0.313c0.788-0.191,1.608-0.276,2.371-0.54c0.767-0.266,1.547-0.604,2.196-1.08
		c0.852-0.623,1.597-1.397,2.358-2.14C165.331,307.824,165.552,307.436,165.789,307.121"/>
</g>
<text transform="matrix(1 0 0 1 191.8853 322.3735)" font-family="'HelveticaNeue-Bold'" font-size="21">eklektic editions</text>
</svg>
