solid OpenSCAD_Model
  facet normal -1 0 0
    outer loop
      vertex -9.5 -1 2
      vertex -9.5 1 2
      vertex -9.5 -1 2.22045e-016
    endloop
  endfacet
  facet normal -1 0 0
    outer loop
      vertex -9.5 -1 2.22045e-016
      vertex -9.5 1 2
      vertex -9.5 1 -2.22045e-016
    endloop
  endfacet
  facet normal 0 2.22045e-016 1
    outer loop
      vertex -7.70711 0.707107 2
      vertex -7.5 0.866025 2
      vertex -8 1 2
    endloop
  endfacet
  facet normal 0 2.22045e-016 1
    outer loop
      vertex -9.5 1 2
      vertex -9.5 -1 2
      vertex -8 -1 2
    endloop
  endfacet
  facet normal 0 2.22045e-016 1
    outer loop
      vertex -6 -2.5 2
      vertex -9.5 1 2
      vertex -8 -1 2
    endloop
  endfacet
  facet normal 0 2.22045e-016 1
    outer loop
      vertex -8 -2.5 2
      vertex -6 -2.5 2
      vertex -8 -1 2
    endloop
  endfacet
  facet normal 0 2.22045e-016 1
    outer loop
      vertex -7.96593 0.258819 2
      vertex -7.86602 0.5 2
      vertex -9.5 1 2
    endloop
  endfacet
  facet normal 0 2.22045e-016 1
    outer loop
      vertex -7 1 2
      vertex -6.74118 0.965926 2
      vertex -6 1 2
    endloop
  endfacet
  facet normal 0 2.22045e-016 1
    outer loop
      vertex -4.5 -1 2
      vertex -4.5 1 2
      vertex -6 1 2
    endloop
  endfacet
  facet normal 0 2.22045e-016 1
    outer loop
      vertex -8 4.44089e-016 2
      vertex -7.96593 0.258819 2
      vertex -9.5 1 2
    endloop
  endfacet
  facet normal 0 2.22045e-016 1
    outer loop
      vertex -7.86602 0.5 2
      vertex -8 1 2
      vertex -9.5 1 2
    endloop
  endfacet
  facet normal 0 2.22045e-016 1
    outer loop
      vertex -7 1 2
      vertex -6 2.5 2
      vertex -8 1 2
    endloop
  endfacet
  facet normal 0 2.22045e-016 1
    outer loop
      vertex -7.86602 -0.5 2
      vertex -7.96593 -0.258819 2
      vertex -9.5 1 2
    endloop
  endfacet
  facet normal 0 2.22045e-016 1
    outer loop
      vertex -7.96593 -0.258819 2
      vertex -8 4.44089e-016 2
      vertex -9.5 1 2
    endloop
  endfacet
  facet normal 0 2.22045e-016 1
    outer loop
      vertex -7.25882 -0.965926 2
      vertex -7.5 -0.866025 2
      vertex -6 -2.5 2
    endloop
  endfacet
  facet normal 0 2.22045e-016 1
    outer loop
      vertex -7.70711 0.707107 2
      vertex -8 1 2
      vertex -7.86602 0.5 2
    endloop
  endfacet
  facet normal 0 2.22045e-016 1
    outer loop
      vertex -7.25882 0.965926 2
      vertex -7 1 2
      vertex -8 1 2
    endloop
  endfacet
  facet normal 0 2.22045e-016 1
    outer loop
      vertex -6.74118 0.965926 2
      vertex -6.5 0.866025 2
      vertex -6 1 2
    endloop
  endfacet
  facet normal 0 2.22045e-016 1
    outer loop
      vertex -7.5 0.866025 2
      vertex -7.25882 0.965926 2
      vertex -8 1 2
    endloop
  endfacet
  facet normal 0 2.22045e-016 1
    outer loop
      vertex -6 1 2
      vertex -6 2.5 2
      vertex -7 1 2
    endloop
  endfacet
  facet normal 0 2.22045e-016 1
    outer loop
      vertex -6.29289 0.707107 2
      vertex -6.13397 0.5 2
      vertex -4.5 -1 2
    endloop
  endfacet
  facet normal 0 2.22045e-016 1
    outer loop
      vertex -6.29289 0.707107 2
      vertex -6 1 2
      vertex -6.5 0.866025 2
    endloop
  endfacet
  facet normal 0 2.22045e-016 1
    outer loop
      vertex -4.5 -1 2
      vertex -6 1 2
      vertex -6.29289 0.707107 2
    endloop
  endfacet
  facet normal 0 2.22045e-016 1
    outer loop
      vertex -4.5 -1 2
      vertex -6.13397 0.5 2
      vertex -6.03407 0.258819 2
    endloop
  endfacet
  facet normal 0 2.22045e-016 1
    outer loop
      vertex -6.03407 -0.258819 2
      vertex -6.13397 -0.5 2
      vertex -4.5 -1 2
    endloop
  endfacet
  facet normal 0 2.22045e-016 1
    outer loop
      vertex -4.5 -1 2
      vertex -6.03407 0.258819 2
      vertex -6 4.44089e-016 2
    endloop
  endfacet
  facet normal 0 2.22045e-016 1
    outer loop
      vertex -6 -1 2
      vertex -4.5 -1 2
      vertex -6.13397 -0.5 2
    endloop
  endfacet
  facet normal 0 2.22045e-016 1
    outer loop
      vertex -6 -1 2
      vertex -6.13397 -0.5 2
      vertex -6.29289 -0.707107 2
    endloop
  endfacet
  facet normal 0 2.22045e-016 1
    outer loop
      vertex -6 -2.5 2
      vertex -6 -1 2
      vertex -6.5 -0.866025 2
    endloop
  endfacet
  facet normal 0 2.22045e-016 1
    outer loop
      vertex -6 -2.5 2
      vertex -6.5 -0.866025 2
      vertex -6.74118 -0.965926 2
    endloop
  endfacet
  facet normal 0 2.22045e-016 1
    outer loop
      vertex -6 -2.5 2
      vertex -6.74118 -0.965926 2
      vertex -7 -1 2
    endloop
  endfacet
  facet normal 0 2.22045e-016 1
    outer loop
      vertex -7.70711 -0.707107 2
      vertex -7.86602 -0.5 2
      vertex -9.5 1 2
    endloop
  endfacet
  facet normal 0 2.22045e-016 1
    outer loop
      vertex -6 -2.5 2
      vertex -7 -1 2
      vertex -7.25882 -0.965926 2
    endloop
  endfacet
  facet normal 0 2.22045e-016 1
    outer loop
      vertex -6 -2.5 2
      vertex -7.70711 -0.707107 2
      vertex -9.5 1 2
    endloop
  endfacet
  facet normal 0 2.22045e-016 1
    outer loop
      vertex -6 -2.5 2
      vertex -7.5 -0.866025 2
      vertex -7.70711 -0.707107 2
    endloop
  endfacet
  facet normal 0 2.22045e-016 1
    outer loop
      vertex -8 2.5 2
      vertex -8 1 2
      vertex -6 2.5 2
    endloop
  endfacet
  facet normal 0 2.22045e-016 1
    outer loop
      vertex -6 4.44089e-016 2
      vertex -6.03407 -0.258819 2
      vertex -4.5 -1 2
    endloop
  endfacet
  facet normal 0 2.22045e-016 1
    outer loop
      vertex -6.29289 -0.707107 2
      vertex -6.5 -0.866025 2
      vertex -6 -1 2
    endloop
  endfacet
  facet normal 0 -1 2.22045e-016
    outer loop
      vertex -8 -1 2
      vertex -9.5 -1 2
      vertex -9.5 -1 2.22045e-016
    endloop
  endfacet
  facet normal 0 -1 2.22045e-016
    outer loop
      vertex -8 -1 2.22045e-016
      vertex -8 -1 2
      vertex -9.5 -1 2.22045e-016
    endloop
  endfacet
  facet normal 0 -2.22045e-016 -1
    outer loop
      vertex -9.5 -1 2.22045e-016
      vertex -9.5 1 -2.22045e-016
      vertex -8 -1 2.22045e-016
    endloop
  endfacet
  facet normal 0 -2.22045e-016 -1
    outer loop
      vertex -8 -1 2.22045e-016
      vertex -9.5 1 -2.22045e-016
      vertex -8 1 -2.22045e-016
    endloop
  endfacet
  facet normal 0 -2.22045e-016 -1
    outer loop
      vertex -8 1 -2.22045e-016
      vertex -8 2.5 -5.55112e-016
      vertex -6 2.5 -5.55112e-016
    endloop
  endfacet
  facet normal 0 -2.22045e-016 -1
    outer loop
      vertex -8 1 -2.22045e-016
      vertex -6 2.5 -5.55112e-016
      vertex -8 -1 2.22045e-016
    endloop
  endfacet
  facet normal 0 -2.22045e-016 -1
    outer loop
      vertex -8 -1 2.22045e-016
      vertex -6 2.5 -5.55112e-016
      vertex -6 1 -2.22045e-016
    endloop
  endfacet
  facet normal 0 -2.22045e-016 -1
    outer loop
      vertex -8 -1 2.22045e-016
      vertex -6 1 -2.22045e-016
      vertex -4.5 1 -2.22045e-016
    endloop
  endfacet
  facet normal 0 -2.22045e-016 -1
    outer loop
      vertex -6 -1 2.22045e-016
      vertex -4.5 1 -2.22045e-016
      vertex -4.5 -1 2.22045e-016
    endloop
  endfacet
  facet normal 0 -2.22045e-016 -1
    outer loop
      vertex -8 -1 2.22045e-016
      vertex -4.5 1 -2.22045e-016
      vertex -6 -1 2.22045e-016
    endloop
  endfacet
  facet normal 0 -2.22045e-016 -1
    outer loop
      vertex -6 -1 2.22045e-016
      vertex -6 -2.5 5.55112e-016
      vertex -8 -1 2.22045e-016
    endloop
  endfacet
  facet normal 0 -2.22045e-016 -1
    outer loop
      vertex -8 -1 2.22045e-016
      vertex -6 -2.5 5.55112e-016
      vertex -8 -2.5 5.55112e-016
    endloop
  endfacet
  facet normal 0 1 -2.22045e-016
    outer loop
      vertex -9.5 1 2
      vertex -8 1 2
      vertex -9.5 1 -2.22045e-016
    endloop
  endfacet
  facet normal 0 1 -2.22045e-016
    outer loop
      vertex -9.5 1 -2.22045e-016
      vertex -8 1 2
      vertex -8 1 -2.22045e-016
    endloop
  endfacet
  facet normal -1 0 0
    outer loop
      vertex -8 1 2
      vertex -8 2.5 2
      vertex -8 1 -2.22045e-016
    endloop
  endfacet
  facet normal -1 0 0
    outer loop
      vertex -8 1 -2.22045e-016
      vertex -8 2.5 2
      vertex -8 2.5 -5.55112e-016
    endloop
  endfacet
  facet normal 0 1 -2.22045e-016
    outer loop
      vertex -8 2.5 2
      vertex -6 2.5 2
      vertex -8 2.5 -5.55112e-016
    endloop
  endfacet
  facet normal 0 1 -2.22045e-016
    outer loop
      vertex -8 2.5 -5.55112e-016
      vertex -6 2.5 2
      vertex -6 2.5 -5.55112e-016
    endloop
  endfacet
  facet normal 1 0 0
    outer loop
      vertex -6 2.5 2
      vertex -6 1 2
      vertex -6 1 -2.22045e-016
    endloop
  endfacet
  facet normal 1 0 0
    outer loop
      vertex -6 2.5 -5.55112e-016
      vertex -6 2.5 2
      vertex -6 1 -2.22045e-016
    endloop
  endfacet
  facet normal 0 1 -2.22045e-016
    outer loop
      vertex -6 1 2
      vertex -4.5 1 2
      vertex -6 1 -2.22045e-016
    endloop
  endfacet
  facet normal 0 1 -2.22045e-016
    outer loop
      vertex -6 1 -2.22045e-016
      vertex -4.5 1 2
      vertex -4.5 1 -2.22045e-016
    endloop
  endfacet
  facet normal 1 0 0
    outer loop
      vertex -4.5 1 2
      vertex -4.5 -1 2
      vertex -4.5 -1 2.22045e-016
    endloop
  endfacet
  facet normal 1 0 0
    outer loop
      vertex -4.5 1 -2.22045e-016
      vertex -4.5 1 2
      vertex -4.5 -1 2.22045e-016
    endloop
  endfacet
  facet normal 0 -1 2.22045e-016
    outer loop
      vertex -4.5 -1 2
      vertex -6 -1 2
      vertex -6 -1 2.22045e-016
    endloop
  endfacet
  facet normal 0 -1 2.22045e-016
    outer loop
      vertex -4.5 -1 2.22045e-016
      vertex -4.5 -1 2
      vertex -6 -1 2.22045e-016
    endloop
  endfacet
  facet normal 1 0 0
    outer loop
      vertex -6 -1 2
      vertex -6 -2.5 2
      vertex -6 -2.5 5.55112e-016
    endloop
  endfacet
  facet normal 1 0 0
    outer loop
      vertex -6 -1 2.22045e-016
      vertex -6 -1 2
      vertex -6 -2.5 5.55112e-016
    endloop
  endfacet
  facet normal 0 -1 2.22045e-016
    outer loop
      vertex -6 -2.5 2
      vertex -8 -2.5 2
      vertex -8 -2.5 5.55112e-016
    endloop
  endfacet
  facet normal 0 -1 2.22045e-016
    outer loop
      vertex -6 -2.5 5.55112e-016
      vertex -6 -2.5 2
      vertex -8 -2.5 5.55112e-016
    endloop
  endfacet
  facet normal -1 0 0
    outer loop
      vertex -8 -2.5 2
      vertex -8 -1 2
      vertex -8 -2.5 5.55112e-016
    endloop
  endfacet
  facet normal -1 0 0
    outer loop
      vertex -8 -2.5 5.55112e-016
      vertex -8 -1 2
      vertex -8 -1 2.22045e-016
    endloop
  endfacet
  facet normal -0.991445 -0.130526 5.7965e-017
    outer loop
      vertex -8 8.88178e-016 3
      vertex -8 4.44089e-016 2
      vertex -7.96593 -0.258819 3
    endloop
  endfacet
  facet normal -0.991445 -0.130526 5.7965e-017
    outer loop
      vertex -7.96593 -0.258819 3
      vertex -8 4.44089e-016 2
      vertex -7.96593 -0.258819 2
    endloop
  endfacet
  facet normal -0.923879 -0.382685 1.69946e-016
    outer loop
      vertex -7.96593 -0.258819 3
      vertex -7.96593 -0.258819 2
      vertex -7.86602 -0.5 3
    endloop
  endfacet
  facet normal -0.923879 -0.382685 1.69946e-016
    outer loop
      vertex -7.86602 -0.5 3
      vertex -7.96593 -0.258819 2
      vertex -7.86602 -0.5 2
    endloop
  endfacet
  facet normal -0.793355 -0.60876 2.70344e-016
    outer loop
      vertex -7.86602 -0.5 3
      vertex -7.86602 -0.5 2
      vertex -7.70711 -0.707107 3
    endloop
  endfacet
  facet normal -0.793355 -0.60876 2.70344e-016
    outer loop
      vertex -7.70711 -0.707107 3
      vertex -7.86602 -0.5 2
      vertex -7.70711 -0.707107 2
    endloop
  endfacet
  facet normal -0.60876 -0.793355 3.5232e-016
    outer loop
      vertex -7.5 -0.866025 3
      vertex -7.70711 -0.707107 3
      vertex -7.70711 -0.707107 2
    endloop
  endfacet
  facet normal -0.60876 -0.793355 3.5232e-016
    outer loop
      vertex -7.5 -0.866025 2
      vertex -7.5 -0.866025 3
      vertex -7.70711 -0.707107 2
    endloop
  endfacet
  facet normal -0.382685 -0.923879 4.10285e-016
    outer loop
      vertex -7.25882 -0.965926 3
      vertex -7.5 -0.866025 3
      vertex -7.5 -0.866025 2
    endloop
  endfacet
  facet normal -0.382685 -0.923879 4.10285e-016
    outer loop
      vertex -7.25882 -0.965926 2
      vertex -7.25882 -0.965926 3
      vertex -7.5 -0.866025 2
    endloop
  endfacet
  facet normal -0.130526 -0.991445 4.4029e-016
    outer loop
      vertex -7 -1 3
      vertex -7.25882 -0.965926 3
      vertex -7.25882 -0.965926 2
    endloop
  endfacet
  facet normal -0.130526 -0.991445 4.4029e-016
    outer loop
      vertex -7 -1 2
      vertex -7 -1 3
      vertex -7.25882 -0.965926 2
    endloop
  endfacet
  facet normal 0.130526 -0.991445 4.4029e-016
    outer loop
      vertex -6.74118 -0.965926 3
      vertex -7 -1 3
      vertex -7 -1 2
    endloop
  endfacet
  facet normal 0.130526 -0.991445 4.4029e-016
    outer loop
      vertex -6.74118 -0.965926 2
      vertex -6.74118 -0.965926 3
      vertex -7 -1 2
    endloop
  endfacet
  facet normal 0.382685 -0.923879 4.10285e-016
    outer loop
      vertex -6.5 -0.866025 3
      vertex -6.74118 -0.965926 3
      vertex -6.74118 -0.965926 2
    endloop
  endfacet
  facet normal 0.382685 -0.923879 4.10285e-016
    outer loop
      vertex -6.5 -0.866025 2
      vertex -6.5 -0.866025 3
      vertex -6.74118 -0.965926 2
    endloop
  endfacet
  facet normal 0.60876 -0.793355 3.5232e-016
    outer loop
      vertex -6.29289 -0.707107 3
      vertex -6.5 -0.866025 3
      vertex -6.5 -0.866025 2
    endloop
  endfacet
  facet normal 0.60876 -0.793355 3.5232e-016
    outer loop
      vertex -6.29289 -0.707107 2
      vertex -6.29289 -0.707107 3
      vertex -6.5 -0.866025 2
    endloop
  endfacet
  facet normal 0.793355 -0.60876 2.70344e-016
    outer loop
      vertex -6.13397 -0.5 3
      vertex -6.29289 -0.707107 3
      vertex -6.29289 -0.707107 2
    endloop
  endfacet
  facet normal 0.793355 -0.60876 2.70344e-016
    outer loop
      vertex -6.13397 -0.5 2
      vertex -6.13397 -0.5 3
      vertex -6.29289 -0.707107 2
    endloop
  endfacet
  facet normal 0.923879 -0.382685 1.69946e-016
    outer loop
      vertex -6.03407 -0.258819 3
      vertex -6.13397 -0.5 3
      vertex -6.13397 -0.5 2
    endloop
  endfacet
  facet normal 0.923879 -0.382685 1.69946e-016
    outer loop
      vertex -6.03407 -0.258819 2
      vertex -6.03407 -0.258819 3
      vertex -6.13397 -0.5 2
    endloop
  endfacet
  facet normal 0.991445 -0.130526 5.7965e-017
    outer loop
      vertex -6 8.88178e-016 3
      vertex -6.03407 -0.258819 3
      vertex -6.03407 -0.258819 2
    endloop
  endfacet
  facet normal 0.991445 -0.130526 5.7965e-017
    outer loop
      vertex -6 4.44089e-016 2
      vertex -6 8.88178e-016 3
      vertex -6.03407 -0.258819 2
    endloop
  endfacet
  facet normal 0.991445 0.130526 -5.7965e-017
    outer loop
      vertex -6.03407 0.258819 2
      vertex -6.03407 0.258819 3
      vertex -6 8.88178e-016 3
    endloop
  endfacet
  facet normal 0.991445 0.130526 -5.7965e-017
    outer loop
      vertex -6 4.44089e-016 2
      vertex -6.03407 0.258819 2
      vertex -6 8.88178e-016 3
    endloop
  endfacet
  facet normal 0.923879 0.382685 -1.69946e-016
    outer loop
      vertex -6.13397 0.5 2
      vertex -6.13397 0.5 3
      vertex -6.03407 0.258819 3
    endloop
  endfacet
  facet normal 0.923879 0.382685 -1.69946e-016
    outer loop
      vertex -6.03407 0.258819 2
      vertex -6.13397 0.5 2
      vertex -6.03407 0.258819 3
    endloop
  endfacet
  facet normal 0.793355 0.60876 -2.70344e-016
    outer loop
      vertex -6.29289 0.707107 2
      vertex -6.29289 0.707107 3
      vertex -6.13397 0.5 3
    endloop
  endfacet
  facet normal 0.793355 0.60876 -2.70344e-016
    outer loop
      vertex -6.13397 0.5 2
      vertex -6.29289 0.707107 2
      vertex -6.13397 0.5 3
    endloop
  endfacet
  facet normal 0.60876 0.793355 -3.5232e-016
    outer loop
      vertex -6.5 0.866025 3
      vertex -6.29289 0.707107 3
      vertex -6.5 0.866025 2
    endloop
  endfacet
  facet normal 0.60876 0.793355 -3.5232e-016
    outer loop
      vertex -6.5 0.866025 2
      vertex -6.29289 0.707107 3
      vertex -6.29289 0.707107 2
    endloop
  endfacet
  facet normal 0.382685 0.923879 -4.10285e-016
    outer loop
      vertex -6.74118 0.965926 3
      vertex -6.5 0.866025 3
      vertex -6.74118 0.965926 2
    endloop
  endfacet
  facet normal 0.382685 0.923879 -4.10285e-016
    outer loop
      vertex -6.74118 0.965926 2
      vertex -6.5 0.866025 3
      vertex -6.5 0.866025 2
    endloop
  endfacet
  facet normal 0.130526 0.991445 -4.4029e-016
    outer loop
      vertex -7 1 3
      vertex -6.74118 0.965926 3
      vertex -7 1 2
    endloop
  endfacet
  facet normal 0.130526 0.991445 -4.4029e-016
    outer loop
      vertex -7 1 2
      vertex -6.74118 0.965926 3
      vertex -6.74118 0.965926 2
    endloop
  endfacet
  facet normal -0.130526 0.991445 -4.4029e-016
    outer loop
      vertex -7.25882 0.965926 3
      vertex -7 1 3
      vertex -7.25882 0.965926 2
    endloop
  endfacet
  facet normal -0.130526 0.991445 -4.4029e-016
    outer loop
      vertex -7.25882 0.965926 2
      vertex -7 1 3
      vertex -7 1 2
    endloop
  endfacet
  facet normal -0.382685 0.923879 -4.10285e-016
    outer loop
      vertex -7.5 0.866025 3
      vertex -7.25882 0.965926 3
      vertex -7.5 0.866025 2
    endloop
  endfacet
  facet normal -0.382685 0.923879 -4.10285e-016
    outer loop
      vertex -7.5 0.866025 2
      vertex -7.25882 0.965926 3
      vertex -7.25882 0.965926 2
    endloop
  endfacet
  facet normal -0.60876 0.793355 -3.5232e-016
    outer loop
      vertex -7.70711 0.707107 3
      vertex -7.5 0.866025 3
      vertex -7.70711 0.707107 2
    endloop
  endfacet
  facet normal -0.60876 0.793355 -3.5232e-016
    outer loop
      vertex -7.70711 0.707107 2
      vertex -7.5 0.866025 3
      vertex -7.5 0.866025 2
    endloop
  endfacet
  facet normal -0.793355 0.60876 -2.70344e-016
    outer loop
      vertex -7.86602 0.5 3
      vertex -7.70711 0.707107 3
      vertex -7.86602 0.5 2
    endloop
  endfacet
  facet normal -0.793355 0.60876 -2.70344e-016
    outer loop
      vertex -7.86602 0.5 2
      vertex -7.70711 0.707107 3
      vertex -7.70711 0.707107 2
    endloop
  endfacet
  facet normal -0.923879 0.382685 -1.69946e-016
    outer loop
      vertex -7.96593 0.258819 3
      vertex -7.86602 0.5 3
      vertex -7.96593 0.258819 2
    endloop
  endfacet
  facet normal -0.923879 0.382685 -1.69946e-016
    outer loop
      vertex -7.96593 0.258819 2
      vertex -7.86602 0.5 3
      vertex -7.86602 0.5 2
    endloop
  endfacet
  facet normal -0.991445 0.130526 -5.7965e-017
    outer loop
      vertex -8 8.88178e-016 3
      vertex -7.96593 0.258819 3
      vertex -8 4.44089e-016 2
    endloop
  endfacet
  facet normal -0.991445 0.130526 -5.7965e-017
    outer loop
      vertex -8 4.44089e-016 2
      vertex -7.96593 0.258819 3
      vertex -7.96593 0.258819 2
    endloop
  endfacet
  facet normal 0 4.44089e-016 1
    outer loop
      vertex -7.96593 0.258819 3
      vertex -8 8.88178e-016 3
      vertex -7.96593 -0.258819 3
    endloop
  endfacet
  facet normal 0 4.44089e-016 1
    outer loop
      vertex -7.70711 -0.707107 3
      vertex -7.96593 0.258819 3
      vertex -7.86602 -0.5 3
    endloop
  endfacet
  facet normal 0 4.44089e-016 1
    outer loop
      vertex -7.86602 -0.5 3
      vertex -7.96593 0.258819 3
      vertex -7.96593 -0.258819 3
    endloop
  endfacet
  facet normal 0 4.44089e-016 1
    outer loop
      vertex -7.5 -0.866025 3
      vertex -7.96593 0.258819 3
      vertex -7.70711 -0.707107 3
    endloop
  endfacet
  facet normal 0 4.44089e-016 1
    outer loop
      vertex -7.25882 -0.965926 3
      vertex -7.96593 0.258819 3
      vertex -7.5 -0.866025 3
    endloop
  endfacet
  facet normal 0 4.44089e-016 1
    outer loop
      vertex -7 -1 3
      vertex -7.96593 0.258819 3
      vertex -7.25882 -0.965926 3
    endloop
  endfacet
  facet normal 0 4.44089e-016 1
    outer loop
      vertex -6.74118 -0.965926 3
      vertex -7.96593 0.258819 3
      vertex -7 -1 3
    endloop
  endfacet
  facet normal 0 4.44089e-016 1
    outer loop
      vertex -6.5 -0.866025 3
      vertex -7.96593 0.258819 3
      vertex -6.74118 -0.965926 3
    endloop
  endfacet
  facet normal 0 4.44089e-016 1
    outer loop
      vertex -6.29289 -0.707107 3
      vertex -7.96593 0.258819 3
      vertex -6.5 -0.866025 3
    endloop
  endfacet
  facet normal 0 4.44089e-016 1
    outer loop
      vertex -6.13397 -0.5 3
      vertex -7.96593 0.258819 3
      vertex -6.29289 -0.707107 3
    endloop
  endfacet
  facet normal 0 4.44089e-016 1
    outer loop
      vertex -6.03407 -0.258819 3
      vertex -7.96593 0.258819 3
      vertex -6.13397 -0.5 3
    endloop
  endfacet
  facet normal 0 4.44089e-016 1
    outer loop
      vertex -6 8.88178e-016 3
      vertex -7.96593 0.258819 3
      vertex -6.03407 -0.258819 3
    endloop
  endfacet
  facet normal 0 4.44089e-016 1
    outer loop
      vertex -6.03407 0.258819 3
      vertex -7.96593 0.258819 3
      vertex -6 8.88178e-016 3
    endloop
  endfacet
  facet normal 0 4.44089e-016 1
    outer loop
      vertex -6.13397 0.5 3
      vertex -7.96593 0.258819 3
      vertex -6.03407 0.258819 3
    endloop
  endfacet
  facet normal 0 4.44089e-016 1
    outer loop
      vertex -6.29289 0.707107 3
      vertex -7.96593 0.258819 3
      vertex -6.13397 0.5 3
    endloop
  endfacet
  facet normal 0 4.44089e-016 1
    outer loop
      vertex -6.5 0.866025 3
      vertex -7.96593 0.258819 3
      vertex -6.29289 0.707107 3
    endloop
  endfacet
  facet normal 0 4.44089e-016 1
    outer loop
      vertex -6.74118 0.965926 3
      vertex -7.96593 0.258819 3
      vertex -6.5 0.866025 3
    endloop
  endfacet
  facet normal 0 4.44089e-016 1
    outer loop
      vertex -7 1 3
      vertex -7.96593 0.258819 3
      vertex -6.74118 0.965926 3
    endloop
  endfacet
  facet normal 0 4.44089e-016 1
    outer loop
      vertex -7.25882 0.965926 3
      vertex -7.96593 0.258819 3
      vertex -7 1 3
    endloop
  endfacet
  facet normal 0 4.44089e-016 1
    outer loop
      vertex -7.5 0.866025 3
      vertex -7.96593 0.258819 3
      vertex -7.25882 0.965926 3
    endloop
  endfacet
  facet normal 0 4.44089e-016 1
    outer loop
      vertex -7.70711 0.707107 3
      vertex -7.96593 0.258819 3
      vertex -7.5 0.866025 3
    endloop
  endfacet
  facet normal 0 4.44089e-016 1
    outer loop
      vertex -7.86602 0.5 3
      vertex -7.96593 0.258819 3
      vertex -7.70711 0.707107 3
    endloop
  endfacet
endsolid OpenSCAD_Model
